<?xml version="1.0" encoding="UTF-8"?>
<svg xmlns="http://www.w3.org/2000/svg" width="1024" height="1024" viewBox="0 0 1024 1024">
  <path d="M 475 481 L 470 484 L 462 507 L 434 517 L 414 507 L 396 531 L 403 547 L 394 577 L 394 593 L 400 613 L 396 631 L 410 652 L 426 648 L 447 659 L 455 685 L 485 685 L 492 659 L 517 645 L 536 652 L 545 647 L 559 629 L 542 609 L 545 580 L 566 562 L 554 532 L 527 536 L 506 517 L 505 492 Z M 461 544 L 482 546 L 492 552 L 502 563 L 508 578 L 508 591 L 501 608 L 486 621 L 474 625 L 457 624 L 443 617 L 433 606 L 427 591 L 428 574 L 434 561 L 447 549 Z M 551 353 L 523 363 L 526 391 L 502 417 L 472 418 L 464 448 L 486 459 L 490 463 L 492 475 L 516 485 L 517 511 L 531 524 L 550 519 L 559 521 L 570 539 L 582 541 L 595 560 L 601 563 L 626 551 L 624 523 L 647 493 L 672 492 L 677 459 L 655 450 L 650 445 L 647 430 L 640 416 L 641 408 L 651 391 L 647 383 L 629 370 L 624 370 L 607 385 L 572 379 L 566 374 L 557 354 Z M 566 416 L 580 417 L 597 425 L 608 437 L 614 456 L 612 475 L 606 486 L 593 498 L 575 504 L 561 503 L 544 495 L 533 483 L 527 466 L 529 446 L 537 432 L 547 423 Z M 890 280 L 567 282 L 567 343 L 577 366 L 604 371 L 621 356 L 626 355 L 660 377 L 666 383 L 667 390 L 654 416 L 662 438 L 684 445 L 690 452 L 689 476 L 683 501 L 675 506 L 653 506 L 637 526 L 640 555 L 634 561 L 601 576 L 592 575 L 579 565 L 567 578 L 567 614 L 573 623 L 567 652 L 568 735 L 701 735 L 701 563 L 704 560 L 853 559 L 853 451 L 704 450 L 701 447 L 701 397 L 704 393 L 890 393 Z M 133 281 L 133 393 L 253 395 L 253 734 L 387 735 L 387 396 L 389 393 L 496 393 L 496 281 Z M 64 230 L 58 248 L 58 775 L 65 795 L 79 809 L 102 817 L 920 817 L 940 811 L 957 796 L 965 775 L 965 249 L 960 232 L 944 214 L 923 206 L 101 206 L 82 212 Z M 96 248 L 103 242 L 922 243 L 929 252 L 927 775 L 919 781 L 102 780 L 94 771 Z" fill="#FFFFFF" fill-rule="evenodd"/>
</svg>
